<svg width="51" height="51" viewBox="0 0 51 51" fill="none" xmlns="http://www.w3.org/2000/svg">
<g clip-path="url(#clip0_4310_74)">
<mask id="mask0_4310_74" style="mask-type:luminance" maskUnits="userSpaceOnUse" x="0" y="0" width="51" height="51">
<path d="M25.5 0C39.5945 0 51 11.4055 51 25.5C51 39.5945 39.5945 51 25.5 51C11.4055 51 0 39.5945 0 25.5C0 11.4055 11.4055 0 25.5 0Z" fill="white"/>
</mask>
<g mask="url(#mask0_4310_74)">
<g filter="url(#filter0_d_4310_74)">
<path d="M25.5 0.597656C39.2642 0.597656 50.4023 11.7358 50.4023 25.5C50.4023 39.2642 39.2642 50.4023 25.5 50.4023C11.7358 50.4023 0.597656 39.2642 0.597656 25.5C0.597656 11.7358 11.7358 0.597656 25.5 0.597656Z" fill="black"/>
</g>
<path d="M25.5 0.597656C39.2642 0.597656 50.4023 11.7358 50.4023 25.5C50.4023 39.2642 39.2642 50.4023 25.5 50.4023C11.7358 50.4023 0.597656 39.2642 0.597656 25.5C0.597656 11.7358 11.7358 0.597656 25.5 0.597656Z" fill="white"/>
</g>
<mask id="mask1_4310_74" style="mask-type:luminance" maskUnits="userSpaceOnUse" x="0" y="0" width="51" height="51">
<path d="M25.5 0C39.5945 0 51 11.4055 51 25.5C51 39.5945 39.5945 51 25.5 51C11.4055 51 0 39.5945 0 25.5C0 11.4055 11.4055 0 25.5 0Z" fill="white"/>
</mask>
<g mask="url(#mask1_4310_74)">
<path d="M25.5 1.47144C38.7813 1.47144 49.5286 12.2188 49.5286 25.5C49.5286 38.7813 38.7813 49.5286 25.5 49.5286C12.2188 49.5286 1.47144 38.7813 1.47144 25.5C1.47144 12.2188 12.2188 1.47144 25.5 1.47144Z" fill="#5C5C5E"/>
</g>
<mask id="mask2_4310_74" style="mask-type:luminance" maskUnits="userSpaceOnUse" x="0" y="0" width="51" height="51">
<path d="M25.5 0C39.5945 0 51 11.4055 51 25.5C51 39.5945 39.5945 51 25.5 51C11.4055 51 0 39.5945 0 25.5C0 11.4055 11.4055 0 25.5 0Z" fill="white"/>
</mask>
<g mask="url(#mask2_4310_74)">
<path d="M38.257 36.0726C37.3832 38.7813 36.0726 40.7909 34.2377 42.2763C32.4028 43.7617 29.9562 44.5481 26.898 44.8102L26.2864 40.7909C28.2961 40.5288 29.7815 40.0919 30.7426 39.3929C31.0921 39.1308 31.7911 38.3444 31.7911 38.3444L24.5389 15.1022H30.5678L34.7619 32.4901L39.2181 15.1022H45.0724L38.257 36.0726ZM17.1992 14.3158C18.5972 14.3158 19.9079 14.4905 20.9564 14.9274C22.0923 15.3643 23.1408 15.976 24.1893 16.8497L21.7428 20.17C21.0438 19.6458 20.3448 19.2963 19.7331 19.0341C19.1215 18.772 18.3351 18.6846 17.6361 18.6846C14.6653 18.6846 13.1799 20.9564 13.1799 25.5874C13.1799 27.9466 13.5294 29.6067 14.3158 30.5679C15.1022 31.6164 16.1507 32.0533 17.6361 32.0533C18.3351 32.0533 19.0341 31.9659 19.6458 31.7037C20.2574 31.4416 20.9564 31.0921 21.8302 30.5679L24.2767 34.0629C22.2671 35.7231 19.9953 36.5095 17.374 36.5095C15.2769 36.5095 13.5294 36.0726 11.9566 35.1988C10.4712 34.325 9.24794 33.0144 8.46155 31.3542C7.67516 29.6941 7.23828 27.7718 7.23828 25.5C7.23828 23.3156 7.67516 21.3059 8.46155 19.6458C9.24794 17.8982 10.4712 16.5876 11.9566 15.6264C13.442 14.8401 15.1896 14.3158 17.1992 14.3158Z" fill="white"/>
</g>
</g>
<defs>
<filter id="filter0_d_4310_74" x="-11.9023" y="-11.9023" width="74.8047" height="74.8047" filterUnits="userSpaceOnUse" color-interpolation-filters="sRGB">
<feFlood flood-opacity="0" result="BackgroundImageFix"/>
<feColorMatrix in="SourceAlpha" type="matrix" values="0 0 0 0 0 0 0 0 0 0 0 0 0 0 0 0 0 0 127 0" result="hardAlpha"/>
<feOffset/>
<feGaussianBlur stdDeviation="6.25"/>
<feColorMatrix type="matrix" values="0 0 0 0 0 0 0 0 0 0 0 0 0 0 0 0 0 0 0.3 0"/>
<feBlend mode="normal" in2="BackgroundImageFix" result="effect1_dropShadow_4310_74"/>
<feBlend mode="normal" in="SourceGraphic" in2="effect1_dropShadow_4310_74" result="shape"/>
</filter>
<clipPath id="clip0_4310_74">
<rect width="51" height="51" fill="white"/>
</clipPath>
</defs>
</svg>
