<svg width="58" height="54" viewBox="0 0 58 54" fill="none" xmlns="http://www.w3.org/2000/svg">
<path d="M54.0823 28.4301C54.0823 42.3587 42.5635 53.6501 28.3543 53.6501C14.1451 53.6501 2.62628 42.3587 2.62628 28.4301C2.62628 14.5014 14.1451 3.20996 28.3543 3.20996C42.5635 3.20996 54.0823 14.5014 54.0823 28.4301Z" fill="white"/>
<path fill-rule="evenodd" clip-rule="evenodd" d="M28.9289 0C22.1695 0.0033677 15.6316 2.30228 10.4845 6.48566C5.33737 10.669 1.91655 16.4641 0.833725 22.8346C-0.249104 29.2051 1.07665 35.7357 4.57397 41.2586C8.07128 46.7814 13.5121 50.9365 19.9235 52.9807C21.338 53.2328 21.8707 52.391 21.8707 51.6752C21.8707 50.9595 21.8424 48.8842 21.833 46.6153C13.912 48.2584 12.2383 43.4056 12.2383 43.4056C10.9464 40.2544 9.07928 39.4261 9.07928 39.4261C6.49553 37.7424 9.27261 37.7739 9.27261 37.7739C12.1345 37.9675 13.6386 40.5785 13.6386 40.5785C16.1752 44.7336 20.3007 43.5316 21.9226 42.8294C22.1772 41.0692 22.9174 39.8717 23.7331 39.192C17.4058 38.5077 10.7578 36.1758 10.7578 25.7588C10.7186 23.0573 11.7685 20.4447 13.6904 18.4616C13.3981 17.7773 12.4221 15.0132 13.9686 11.2588C13.9686 11.2588 16.3591 10.5295 21.8 14.0454C26.4669 12.8268 31.3909 12.8268 36.0578 14.0454C41.494 10.5295 43.8798 11.2588 43.8798 11.2588C45.4309 15.0042 44.455 17.7683 44.1627 18.4616C46.0906 20.445 47.1428 23.0621 47.1 25.7678C47.1 36.2073 40.4379 38.5077 34.1011 39.1785C35.1195 40.0248 36.0295 41.6769 36.0295 44.2159C36.0295 47.8533 35.9965 50.7794 35.9965 51.6752C35.9965 52.4 36.5104 53.2463 37.9532 52.9807C44.3653 50.9362 49.8067 46.7805 53.3039 41.2567C56.8012 35.7328 58.1262 29.2013 57.0422 22.8302C55.9581 16.4591 52.5356 10.664 47.3868 6.48129C42.2379 2.29863 35.6986 0.00123308 28.9383 0H28.9289Z" fill="black"/>
<path d="M11.2381 39.0344C11.1768 39.1694 10.9505 39.21 10.7666 39.1154C10.5828 39.0209 10.446 38.8453 10.512 38.7058C10.578 38.5662 10.7996 38.5302 10.9835 38.6247C11.1674 38.7193 11.3088 38.8993 11.2381 39.0344Z" fill="black"/>
<path d="M12.3932 40.2634C12.2956 40.3104 12.1839 40.3235 12.0772 40.3005C11.9706 40.2775 11.8756 40.2198 11.8086 40.1373C11.6247 39.9483 11.587 39.6872 11.7284 39.5701C11.8699 39.4531 12.1245 39.5071 12.3084 39.6962C12.4922 39.8853 12.5347 40.1463 12.3932 40.2634Z" fill="black"/>
<path d="M13.5154 41.8256C13.341 41.9426 13.0439 41.8256 12.8789 41.5915C12.8333 41.5495 12.797 41.4991 12.7722 41.4434C12.7474 41.3878 12.7346 41.3279 12.7346 41.2674C12.7346 41.2068 12.7474 41.147 12.7722 41.0913C12.797 41.0356 12.8333 40.9852 12.8789 40.9432C13.0534 40.8307 13.3504 40.9432 13.5154 41.1728C13.6805 41.4024 13.6852 41.7085 13.5154 41.8256V41.8256Z" fill="black"/>
<path d="M15.0385 43.338C14.883 43.5046 14.5671 43.4595 14.3077 43.2345C14.0484 43.0094 13.9871 42.7033 14.1427 42.5412C14.2983 42.3791 14.6142 42.4242 14.8829 42.6447C15.1517 42.8653 15.2036 43.1759 15.0385 43.338V43.338Z" fill="black"/>
<path d="M17.1741 44.2203C17.1034 44.4318 16.7828 44.5264 16.4622 44.4363C16.1416 44.3463 15.9294 44.0942 15.9907 43.8781C16.052 43.662 16.3773 43.563 16.7027 43.662C17.028 43.7611 17.2354 43.9997 17.1741 44.2203Z" fill="black"/>
<path d="M19.5034 44.3735C19.5034 44.5941 19.2394 44.7832 18.8999 44.7877C18.5605 44.7922 18.2823 44.6121 18.2823 44.3915C18.2823 44.171 18.5463 43.9819 18.8858 43.9774C19.2252 43.9729 19.5034 44.1484 19.5034 44.3735Z" fill="black"/>
<path d="M21.6719 44.0266C21.7143 44.2472 21.4786 44.4768 21.1391 44.5308C20.7996 44.5848 20.5026 44.4543 20.4602 44.2382C20.4177 44.0221 20.6629 43.788 20.9929 43.7295C21.323 43.671 21.6295 43.806 21.6719 44.0266Z" fill="black"/>
</svg>
