<svg width="50" height="53" viewBox="0 0 50 53" fill="none" xmlns="http://www.w3.org/2000/svg">
<path d="M42.3238 26.0243C42.3238 23.3071 40.2458 21.1045 37.6824 21.1045C37.5175 21.1045 37.3549 21.1139 37.1946 21.1317L43.5695 1.20148H16.4783L22.8443 21.1144C22.7509 21.1083 22.657 21.1045 22.5623 21.1045C19.9989 21.1045 17.9209 23.3071 17.9209 26.0243C17.9209 28.2207 19.2788 30.08 21.1529 30.7127C20.1631 32.5302 18.9175 34.1671 17.5034 35.5814C15.5805 37.5043 13.3797 38.9623 10.9995 39.8608C8.16564 38.3176 6.82734 34.8858 8.03493 31.8766C8.17119 31.5368 8.31051 31.1925 8.44348 30.8495C10.4966 30.3416 12.0264 28.3907 12.0264 26.0596C12.0264 23.3425 9.94841 21.1398 7.38494 21.1398C4.82159 21.1398 2.74352 23.3425 2.74352 26.0596C2.74352 27.7259 3.52568 29.1976 4.72115 30.0876C3.57239 32.8601 1.8837 35.7617 1.35761 39.1248C0.72711 43.1551 1.35556 47.4333 4.64407 49.8493C12.3027 55.4759 20.6162 46.3612 29.3815 44.07C32.5583 43.2396 36.0453 43.3735 38.8441 41.6552C40.9458 40.3648 42.3314 38.2264 42.7246 35.8257C43.1131 33.454 42.5468 31.0926 41.2443 29.1779C41.918 28.3239 42.3238 27.2246 42.3238 26.0243Z" fill="#99425B"/>
<path d="M41.6078 35.6201C41.2664 37.7044 40.052 39.525 38.2759 40.6154C36.6203 41.6319 34.6363 41.9353 32.5358 42.2563C31.4105 42.4283 30.2469 42.6062 29.1101 42.9034C26.1044 43.689 23.1932 45.2219 20.3778 46.7041C14.7436 49.6706 9.87787 52.2322 5.28983 48.8617C1.92912 46.3927 2.0843 41.8246 2.47584 39.3213C2.8387 37.0021 3.8197 34.8663 4.76839 32.8007C4.9323 32.4435 5.09293 32.093 5.24925 31.7455C5.71946 31.9446 6.21959 32.0805 6.74092 32.1423C5.77523 35.5206 7.29388 39.1938 10.4815 40.9297L10.9177 41.1672L11.3797 40.9929C13.8997 40.0416 16.2217 38.5151 18.2813 36.4553C19.6126 35.1239 20.7572 33.651 21.698 32.0772C21.98 32.1222 22.2685 32.1459 22.5622 32.1459C25.4878 32.1459 27.9105 29.8276 28.2853 26.8333C29.4828 26.7868 30.7548 26.7865 31.9592 26.8328C32.3339 29.8273 34.7567 32.1459 37.6823 32.1459C38.9056 32.1459 40.0403 31.7395 40.975 31.0492C41.624 32.4574 41.8662 34.0418 41.6078 35.6201ZM7.38491 22.3414C9.31924 22.3414 10.8928 24.0095 10.8928 26.0597C10.8928 26.7962 10.6889 27.4829 10.3389 28.0612C9.75567 29.0251 8.76481 29.6859 7.6259 29.7683C7.54621 29.7741 7.46596 29.7781 7.38491 29.7781C6.95392 29.7781 6.54096 29.6947 6.15917 29.5434C5.38686 29.237 4.74333 28.6496 4.33853 27.8996C4.0455 27.3566 3.87705 26.7288 3.87705 26.0597C3.87705 24.0095 5.45068 22.3414 7.38491 22.3414ZM19.0544 26.0244C19.0544 24.1616 20.3535 22.6148 22.0416 22.3473C22.2115 22.3203 22.3854 22.3061 22.5622 22.3061C23.6867 22.3061 24.6879 22.8708 25.3301 23.7458C25.4897 23.9632 25.6281 24.1991 25.7395 24.4509C25.9512 24.9292 26.0701 25.4622 26.0701 26.0244C26.0701 26.3217 26.0361 26.6107 25.9736 26.8879C25.6317 28.4049 24.4114 29.5643 22.9161 29.7239C22.7998 29.7362 22.6817 29.7427 22.5622 29.7427C21.8619 29.7427 21.2094 29.5232 20.6611 29.1469C19.6953 28.4837 19.0544 27.3322 19.0544 26.0244ZM33.6949 21.6029C32.9434 22.3651 32.3846 23.3389 32.1063 24.4339C30.8073 24.3822 29.4299 24.3822 28.1384 24.4339C27.8418 23.2668 27.2265 22.2371 26.3988 21.455L30.0285 13.6751L33.6949 21.6029ZM18.0593 2.40318H41.9881L36.3364 20.0721C36.0915 20.1345 35.8525 20.2129 35.6206 20.3072L30.0375 8.23462L24.4386 20.2351C24.1966 20.1468 23.9472 20.0757 23.692 20.0217L18.0593 2.40318ZM41.1902 26.0244C41.1902 26.3973 41.1376 26.7571 41.0409 27.097C40.8105 27.9054 40.3272 28.5981 39.6889 29.0718C39.1198 29.494 38.4281 29.7427 37.6823 29.7427C36.0627 29.7427 34.6964 28.5727 34.2948 26.9883C34.2168 26.6807 34.1745 26.3577 34.1745 26.0244C34.1745 25.5161 34.2714 25.0315 34.4463 24.59C34.5364 24.3624 34.6489 24.1473 34.778 23.9452C35.4093 22.9576 36.4746 22.3061 37.6823 22.3061C37.7931 22.3061 37.9024 22.3122 38.0105 22.3229C39.7915 22.4988 41.1902 24.0914 41.1902 26.0244ZM43.4573 26.0244C43.4573 23.0358 41.426 20.5423 38.7504 20.0095L45.1507 0H14.8972L21.3073 20.0502C18.7245 20.6594 16.7872 23.1059 16.7872 26.0244C16.7872 28.2159 17.8799 30.1409 19.5173 31.2226C18.7297 32.4665 17.7957 33.637 16.7255 34.7073C15.0279 36.4048 13.1369 37.6921 11.0982 38.5391C9.04469 37.1718 8.17659 34.5933 9.07813 32.3469L9.14875 32.1709C9.19296 32.061 9.23717 31.9508 9.28127 31.8406C11.5367 31.0067 13.1599 28.7311 13.1599 26.0597C13.1599 22.6842 10.5692 19.9382 7.38491 19.9382C4.20058 19.9382 1.6099 22.6842 1.6099 26.0597C1.6099 27.7635 2.27055 29.3063 3.33385 30.4172C3.14114 30.8525 2.93823 31.2953 2.72999 31.7487C1.75783 33.8653 0.655998 36.2642 0.239296 38.9282C-0.588328 44.2188 0.746685 48.448 3.99835 50.8369C5.97156 52.2865 7.97527 52.8564 9.99179 52.8564C13.7888 52.8564 17.6297 50.8344 21.3864 48.8564C24.0919 47.4321 26.8896 45.959 29.653 45.2366C30.6811 44.9678 31.7392 44.8061 32.8594 44.6349C35.0807 44.2952 37.3776 43.9441 39.4122 42.695C41.7706 41.247 43.385 38.8181 43.8415 36.0313C44.2334 33.6388 43.7618 31.2424 42.6116 29.2103C43.1478 28.2816 43.4573 27.1907 43.4573 26.0244Z" fill="white"/>
</svg>
