<svg width="60" height="58" viewBox="0 0 60 58" fill="none" xmlns="http://www.w3.org/2000/svg">
<g clip-path="url(#clip0_18_19)">
<path d="M6.5 7.25H53.4091V53.65H6.5V7.25Z" fill="white"/>
<path d="M54.9442 0H4.96486C3.81687 0 2.71589 0.451089 1.90414 1.25403C1.09239 2.05697 0.636353 3.146 0.636353 4.28153V53.7185C0.636353 54.854 1.09239 55.943 1.90414 56.746C2.71589 57.5489 3.81687 58 4.96486 58H54.9442C56.0922 58 57.1932 57.5489 58.0049 56.746C58.8167 55.943 59.2727 54.854 59.2727 53.7185V4.28153C59.2727 3.146 58.8167 2.05697 58.0049 1.25403C57.1932 0.451089 56.0922 0 54.9442 0ZM18.1132 45.0008C18.1132 47.4353 16.1398 49.4087 13.7053 49.4087V49.4087C11.2709 49.4087 9.29743 47.4353 9.29743 45.0008V26.1176C9.29743 23.6832 11.2709 21.7097 13.7053 21.7097V21.7097C16.1398 21.7097 18.1132 23.6832 18.1132 26.1176V45.0008ZM13.6992 17.8713C12.6992 17.8657 11.7233 17.5672 10.8946 17.0135C10.0659 16.4599 9.42164 15.6758 9.04304 14.7602C8.66444 13.8447 8.5685 12.8388 8.76734 11.8693C8.96617 10.8999 9.45087 10.0105 10.1603 9.3133C10.8696 8.61611 11.7719 8.1424 12.7532 7.95195C13.7345 7.7615 14.7509 7.86285 15.674 8.24321C16.5971 8.62358 17.3857 9.2659 17.9401 10.0891C18.4945 10.9124 18.79 11.8796 18.7892 12.8688C18.7986 13.531 18.6732 14.1883 18.4203 14.8016C18.1674 15.4149 17.7923 15.9715 17.3174 16.4383C16.8424 16.9051 16.2772 17.2726 15.6556 17.5188C15.034 17.765 14.3687 17.8848 13.6992 17.8713ZM50.6086 45.0276C50.608 47.4607 48.6354 49.4329 46.2022 49.4329V49.4329C43.7686 49.4329 41.7958 47.4601 41.7958 45.0265V34.3006C41.7958 29.8378 39.8779 28.4603 37.4022 28.4603C34.788 28.4603 32.2226 30.4097 32.2226 34.4133V45.025C32.2226 47.4594 30.2491 49.4329 27.8147 49.4329V49.4329C25.3803 49.4329 23.4068 47.4594 23.4068 45.025V25.9688C23.4068 23.6277 25.3046 21.7299 27.6457 21.7299H29.9654C31.0254 21.7299 31.8846 22.5891 31.8846 23.6491V25.4979C31.8846 25.5368 31.9162 25.5683 31.9551 25.5683V25.5683C31.9818 25.5683 32.0057 25.5542 32.0179 25.5304C32.8938 23.8218 35.864 20.9525 40.3788 20.9525C45.2977 20.9525 50.6116 23.8404 50.6116 32.2988L50.6086 45.0276Z" fill="#0077B5"/>
</g>
<defs>
<clipPath id="clip0_18_19">
<rect width="58.6364" height="58" fill="white" transform="translate(0.636353)"/>
</clipPath>
</defs>
</svg>
