<svg width="50" height="50" viewBox="0 0 50 50" fill="none" xmlns="http://www.w3.org/2000/svg">
<g clip-path="url(#clip0_4310_95)">
<path d="M25 50C38.8071 50 50 38.8071 50 25C50 11.1929 38.8071 0 25 0C11.1929 0 0 11.1929 0 25C0 38.8071 11.1929 50 25 50Z" fill="#13AA52"/>
<path d="M31.6827 21.9453C30.1036 14.9761 26.3716 12.6846 25.9698 11.8091C25.5303 11.1914 25.085 10.0928 25.085 10.0928C25.0777 10.0742 25.066 10.0415 25.0523 10.0098C25.0069 10.6274 24.9835 10.8657 24.3995 11.4888C23.4952 12.1958 18.8555 16.0889 18.4781 24.0068C18.126 31.3916 23.8126 35.792 24.5816 36.353L24.669 36.415V36.4097C24.6739 36.4468 24.9131 38.1675 25.0811 39.9907H25.6836C25.825 38.7019 26.0369 37.4218 26.3184 36.1562L26.3672 36.1245C26.7112 35.8779 27.0392 35.6096 27.3492 35.3213L27.3843 35.2895C29.0191 33.7793 31.9581 30.2861 31.9292 24.7168C31.9232 23.7878 31.8407 22.8608 31.6827 21.9453ZM25.0171 32.1836C25.0171 32.1836 25.0171 21.8262 25.3589 21.8281C25.6255 21.8281 25.9708 35.188 25.9708 35.188C25.4961 35.1309 25.0171 32.9893 25.0171 32.1836Z" fill="white"/>
</g>
<defs>
<clipPath id="clip0_4310_95">
<rect width="50" height="50" fill="white"/>
</clipPath>
</defs>
</svg>
