<svg width="51" height="53" viewBox="0 0 51 53" fill="none" xmlns="http://www.w3.org/2000/svg">
<g clip-path="url(#clip0_4310_90)">
<path d="M23.8299 0.0142625C23.7202 0.0246226 23.3713 0.0608832 23.0572 0.0867836C15.8135 0.765374 9.02845 4.82656 4.73109 11.0686C2.33812 14.5392 0.807625 18.4761 0.229326 22.646C0.0249267 24.1016 0 24.5316 0 26.5052C0 28.4788 0.0249267 28.9087 0.229326 30.3643C1.61525 40.3153 8.4302 48.6759 17.673 51.7736C19.3282 52.3279 21.073 52.706 23.0572 52.934C23.8299 53.022 27.1701 53.022 27.9428 52.934C31.3677 52.5403 34.2692 51.6597 37.1308 50.1419C37.5695 49.9088 37.6543 49.8466 37.5944 49.7948C37.5545 49.7637 35.685 47.1582 33.4416 44.0087L29.3636 38.2847L24.2537 30.4265C21.4419 26.1063 19.1287 22.5735 19.1088 22.5735C19.0889 22.5683 19.0689 26.0597 19.0589 30.3229C19.044 37.7874 19.039 38.0878 18.9493 38.264C18.8196 38.5178 18.7199 38.6214 18.5106 38.7354C18.351 38.8182 18.2114 38.8338 17.4587 38.8338H16.5962L16.3669 38.6836C16.2173 38.5851 16.1076 38.4556 16.0328 38.3054L15.9282 38.0723L15.9381 27.6862L15.9531 17.295L16.1076 17.093C16.1874 16.9842 16.3569 16.8443 16.4765 16.777C16.6809 16.6734 16.7607 16.663 17.6232 16.663C18.6402 16.663 18.8097 16.7045 19.0739 17.0049C19.1487 17.0878 21.9155 21.4183 25.2258 26.6347C28.5361 31.851 33.0628 38.9736 35.2862 42.4702L39.3243 48.8262L39.5287 48.6863C41.3384 47.4638 43.2528 45.7233 44.7683 43.9103C47.9938 40.0615 50.0727 35.3683 50.7707 30.3643C50.9751 28.9087 51 28.4788 51 26.5052C51 24.5316 50.9751 24.1016 50.7707 22.646C49.3848 12.6951 42.5698 4.33445 33.327 1.23676C31.6968 0.687673 29.9619 0.309527 28.0176 0.0816035C27.539 0.0298027 24.2437 -0.0271781 23.8299 0.0142625ZM34.2692 16.0414C34.5085 16.1657 34.7029 16.404 34.7727 16.6527C34.8126 16.7874 34.8226 19.6675 34.8126 26.1581L34.7977 35.4719L33.2173 32.9544L31.632 30.4369V23.6665C31.632 19.2893 31.6519 16.8288 31.6818 16.7097C31.7616 16.4196 31.9361 16.1917 32.1754 16.057C32.3798 15.9482 32.4545 15.9378 33.2372 15.9378C33.9751 15.9378 34.1047 15.9482 34.2692 16.0414Z" fill="black"/>
</g>
<defs>
<clipPath id="clip0_4310_90">
<rect width="51" height="53" fill="white"/>
</clipPath>
</defs>
</svg>
