<svg width="52" height="55" viewBox="0 0 52 55" fill="none" xmlns="http://www.w3.org/2000/svg">
<g clip-path="url(#clip0_4311_2)">
<path d="M26 54.898C25.1925 54.898 24.4389 54.6962 23.7391 54.3432L16.5797 50.3588C15.5031 49.8041 16.0414 49.6023 16.3644 49.5015C17.8178 49.0476 18.087 48.9467 19.5942 48.1397C19.7557 48.0389 19.971 48.0893 20.1325 48.1902L25.6232 51.2667C25.8385 51.3675 26.1077 51.3675 26.2692 51.2667L47.7474 39.6163C47.9627 39.5154 48.0704 39.3137 48.0704 39.0615V15.8112C48.0704 15.559 47.9627 15.3573 47.7474 15.2564L26.2692 3.6565C26.0538 3.55563 25.7847 3.55563 25.6232 3.6565L4.14493 15.2564C3.92961 15.3573 3.82195 15.6095 3.82195 15.8112V39.0615C3.82195 39.2633 3.92961 39.5154 4.14493 39.6163L10.0124 42.7937C13.1884 44.3067 15.1801 42.5415 15.1801 40.7763V17.8286C15.1801 17.526 15.4493 17.2234 15.8261 17.2234H18.5714C18.8944 17.2234 19.2174 17.4756 19.2174 17.8286V40.7763C19.2174 44.7606 16.9027 47.0806 12.8654 47.0806C11.6273 47.0806 10.6584 47.0806 7.91304 45.8197L2.26087 42.7937C0.861284 42.0372 0 40.625 0 39.112V15.8617C0 14.3486 0.861284 12.9364 2.26087 12.1799L23.7391 0.529562C25.0849 -0.176521 26.9151 -0.176521 28.2609 0.529562L49.7391 12.1799C51.1387 12.9364 52 14.3486 52 15.8617V39.112C52 40.625 51.1387 42.0372 49.7391 42.7937L28.2609 54.444C27.5611 54.7466 26.7536 54.898 26 54.898ZM32.6211 38.9102C23.2008 38.9102 21.2629 34.8755 21.2629 31.4459C21.2629 31.1433 21.5321 30.8407 21.9089 30.8407H24.7081C25.0311 30.8407 25.3002 31.0424 25.3002 31.345C25.7308 34.0181 26.9689 35.3294 32.6749 35.3294C37.1967 35.3294 39.1346 34.3711 39.1346 32.1016C39.1346 30.7903 38.5963 29.832 31.5445 29.1764C25.677 28.6216 22.0166 27.4112 22.0166 23.0233C22.0166 18.9382 25.677 16.5173 31.8137 16.5173C38.7039 16.5173 42.0952 18.7364 42.5259 23.5781C42.5259 23.7294 42.472 23.8807 42.3644 24.032C42.2567 24.1329 42.0952 24.2338 41.9337 24.2338H39.1346C38.8654 24.2338 38.5963 24.032 38.5424 23.7799C37.8965 21.006 36.2277 20.0981 31.8137 20.0981C26.8613 20.0981 26.2692 21.7121 26.2692 22.9225C26.2692 24.3851 26.9689 24.839 33.6439 25.6459C40.265 26.4529 43.3872 27.6129 43.3872 31.9503C43.3333 36.3885 39.4576 38.9102 32.6211 38.9102Z" fill="#539E43"/>
</g>
<defs>
<clipPath id="clip0_4311_2">
<rect width="52" height="55" fill="white"/>
</clipPath>
</defs>
</svg>
