<svg width="51" height="53" viewBox="0 0 51 53" fill="none" xmlns="http://www.w3.org/2000/svg">
<path d="M29.7695 26.4601C29.7695 24.0844 27.8581 22.1581 25.5 22.1581C23.1422 22.1581 21.2305 24.0844 21.2305 26.4601C21.2305 28.8361 23.1422 30.7622 25.5 30.7622C27.8581 30.7622 29.7695 28.8361 29.7695 26.4601Z" fill="#53C1DE"/>
<path fill-rule="evenodd" clip-rule="evenodd" d="M39.3663 18.4733C40.2678 14.7817 41.4012 7.93589 37.4059 5.61495C33.4294 3.30413 28.2546 7.73209 25.5222 10.39C22.7976 7.75857 17.4775 3.34955 13.4857 5.67785C9.51072 7.99642 10.7365 14.7287 11.6581 18.4435C7.95012 19.5047 1.59375 21.7903 1.59375 26.4601C1.59375 31.1166 7.9435 33.6033 11.6296 34.6635C10.7045 38.3988 9.54012 45.0349 13.5202 47.3484C17.5269 49.6762 22.8305 45.3721 25.5883 42.6852C28.3383 45.3587 33.4633 49.691 37.4407 47.3711C41.4305 45.0439 40.3914 38.2898 39.4697 34.5535C43.0429 33.491 49.4062 31.0585 49.4062 26.4601C49.4062 21.8352 43.0158 19.531 39.3663 18.4733ZM38.9133 32.5735C38.3082 30.6433 37.4914 28.5907 36.4923 26.4704C37.446 24.4 38.231 22.3739 38.8193 20.4562C41.4947 21.2378 47.3639 23.024 47.3639 26.4601C47.3639 29.9284 41.7317 31.7316 38.9133 32.5735ZM36.4172 45.5899C33.4496 47.3207 29.0415 43.1778 27.0106 41.209C28.3579 39.7242 29.7043 37.998 31.0184 36.0812C33.3299 35.8747 35.5135 35.5368 37.4939 35.0756C38.1426 37.7184 39.3978 43.8514 36.4172 45.5899ZM14.5408 45.5653C11.5729 43.8409 12.9294 37.9192 13.6099 35.1676C15.5683 35.6042 17.7362 35.9183 20.0532 36.1076C21.3759 37.9831 22.7613 39.7071 24.1574 41.2169C22.4325 42.8982 17.5225 47.2975 14.5408 45.5653ZM3.63612 26.4601C3.63612 22.9788 9.47017 21.2055 12.2066 20.4259C12.805 22.3867 13.5898 24.437 14.537 26.5103C13.5776 28.6144 12.7815 30.6971 12.1776 32.6811C9.56838 31.9285 3.63612 29.9435 3.63612 26.4601ZM14.509 7.45899C17.489 5.72095 22.1128 9.95378 24.091 11.859C22.702 13.3619 21.3293 15.0729 20.018 16.9376C17.7694 17.1477 15.6168 17.4849 13.6379 17.9367C12.8954 14.9405 11.5322 9.19515 14.509 7.45899ZM32.4795 19.1746C34.005 19.3685 35.4667 19.6266 36.8391 19.9422C36.4271 21.2729 35.9136 22.6643 35.3087 24.0907C34.432 22.4145 33.4909 20.772 32.4795 19.1746ZM25.5228 13.3297C26.4649 14.358 27.4084 15.5063 28.3366 16.7521C26.4539 16.6624 24.5681 16.662 22.6854 16.7508C23.6144 15.5165 24.5661 14.3699 25.5228 13.3297ZM15.7088 24.0892C15.114 22.6678 14.6051 21.2702 14.1895 19.9205C15.5537 19.613 17.0085 19.3616 18.5242 19.1708C17.5099 20.7647 16.5704 22.4066 15.7088 24.0892ZM18.5677 33.8963C17.002 33.7203 15.5251 33.4816 14.1614 33.1825C14.5835 31.8091 15.1036 30.3814 15.7111 28.9294C16.5846 30.6295 17.5384 32.2873 18.5677 33.8963ZM25.5794 39.7359C24.6113 38.6834 23.6457 37.5192 22.7026 36.2671C24.596 36.3419 26.4931 36.3421 28.3863 36.257C27.4552 37.5319 26.5151 38.6978 25.5794 39.7359ZM35.3282 28.8555C35.9673 30.3233 36.506 31.7432 36.9339 33.0934C35.5475 33.4122 34.0508 33.6689 32.4738 33.8595C33.4927 32.2318 34.4487 30.5638 35.3282 28.8555ZM29.8785 34.109C26.9823 34.3175 24.0682 34.3152 21.1711 34.126C19.5249 31.7031 18.0594 29.155 16.7945 26.5096C18.0534 23.8697 19.5081 21.3265 21.1465 18.9074C24.0457 18.6866 26.9627 18.686 29.8619 18.9087C31.4863 21.3277 32.9388 23.8642 34.2269 26.4803C32.9541 29.1189 31.4917 31.6672 29.8785 34.109ZM36.3858 7.3978C39.3666 9.13014 38.0398 15.2826 37.3886 17.9581C35.405 17.4968 33.2509 17.1536 30.9957 16.9403C29.6818 15.0554 28.3206 13.3414 26.9541 11.8579C28.9576 9.91168 33.4338 5.68241 36.3858 7.3978Z" fill="#53C1DE"/>
</svg>
