<svg width="51" height="53" viewBox="0 0 51 53" fill="none" xmlns="http://www.w3.org/2000/svg">
<path d="M37.9742 13.6525C39.3309 13.9805 40.5638 14.7187 41.5171 15.7741C42.0423 16.3453 42.4983 16.9811 42.875 17.6672C42.8925 17.7418 40.4302 19.4609 38.9368 20.4199C38.8827 20.458 38.6675 20.2145 38.4237 19.8402C38.1509 19.3529 37.7637 18.9454 37.2982 18.6558C36.8328 18.3661 36.3043 18.2038 35.7621 18.184C34.0456 18.0614 32.9396 18.9955 32.9475 20.5574C32.9327 20.9411 33.0169 21.3219 33.1914 21.6604C33.5691 22.472 34.2704 22.9589 36.4729 23.951C40.5274 25.7646 42.2678 26.9604 43.342 28.6598C43.9492 29.7334 44.3231 30.9321 44.4376 32.1718C44.5522 33.4115 44.4045 34.6622 44.005 35.8363C43.4559 37.1239 42.5852 38.2353 41.4832 39.0552C40.3813 39.875 39.0882 40.3734 37.7384 40.4986C36.3035 40.6697 34.8537 40.6541 33.4225 40.4523C31.2303 40.0779 29.2108 38.9845 27.6595 37.3319C27.0733 36.6459 26.5771 35.8824 26.1837 35.0612C26.3491 34.9333 26.5233 34.8181 26.7048 34.7167C26.9566 34.5676 27.9097 33.9978 28.8086 33.4563L30.4406 32.4625L30.7816 32.9793C31.3561 33.833 32.0873 34.5602 32.9332 35.1191C33.7875 35.6061 34.7552 35.8369 35.7283 35.7857C36.7014 35.7345 37.6418 35.4034 38.4444 34.8293C38.8584 34.4099 39.1172 33.8525 39.1755 33.2548C39.2338 32.657 39.0878 32.057 38.7631 31.5598C38.3233 30.9056 37.4244 30.3558 34.8696 29.2047C32.8663 28.5027 31.0417 27.3391 29.5321 25.8011C28.8132 24.9497 28.2823 23.9451 27.9766 22.8579C27.7506 21.6193 27.7172 20.3511 27.8778 19.1015C28.1777 17.6636 28.8958 16.3563 29.9346 15.3567C30.9734 14.3572 32.2829 13.7136 33.6854 13.5133C35.1137 13.336 36.5594 13.3829 37.9742 13.6525ZM24.6776 16.1087L24.6951 18.5169H17.316V40.2933H12.1124V18.5218H4.73338V16.1567C4.71376 15.3468 4.73504 14.5363 4.79713 13.7287C4.82423 13.6906 9.31063 13.6723 14.7501 13.6823L24.6489 13.7104L24.6776 16.1087Z" fill="#007ACC"/>
</svg>
