<svg width="55" height="59" viewBox="0 0 55 59" fill="none" xmlns="http://www.w3.org/2000/svg">
<path d="M53.6104 8.99747L28.9283 56.344C28.4183 57.3217 27.109 57.3272 26.5921 56.3551L1.42013 9.003C0.855949 7.94192 1.70028 6.65821 2.82134 6.87255L27.5301 11.6096C27.6878 11.6405 27.8494 11.6405 28.007 11.6096L52.1985 6.87992C53.3148 6.6619 54.1643 7.93501 53.6104 8.99747Z" fill="url(#paint0_linear_4311_4)"/>
<path d="M39.2991 0.659132L21.0348 4.49782C20.889 4.52838 20.7569 4.61001 20.659 4.7299C20.5612 4.84979 20.5032 5.00114 20.4943 5.16019L19.3698 25.5189C19.3637 25.6305 19.382 25.7421 19.4231 25.8449C19.4643 25.9477 19.5271 26.0387 19.6068 26.1109C19.6864 26.1831 19.7806 26.2344 19.8819 26.2608C19.9832 26.2871 20.0889 26.2878 20.1905 26.2628L25.2763 25.0022C25.3858 24.9752 25.4999 24.9781 25.6081 25.0107C25.7163 25.0433 25.8151 25.1045 25.8955 25.1888C25.9759 25.273 26.0353 25.3775 26.0683 25.4928C26.1012 25.6081 26.1066 25.7303 26.0841 25.8484L24.5729 33.7853C24.5498 33.9075 24.5566 34.034 24.5928 34.1524C24.6289 34.2709 24.6931 34.3773 24.7791 34.4611C24.8651 34.545 24.9699 34.6035 25.0832 34.6308C25.1966 34.6582 25.3146 34.6536 25.4258 34.6173L28.566 33.5927C29.0528 33.4341 29.5212 33.8932 29.4189 34.4279L27.0169 46.8949C26.8674 47.6748 27.8342 48.0997 28.2372 47.4314L28.5058 46.9852L43.3902 15.1206C43.6403 14.5859 43.2093 13.9775 42.664 14.0909L37.4283 15.175C37.3156 15.1985 37.1992 15.1905 37.0902 15.1518C36.9813 15.1131 36.8834 15.045 36.8061 14.9541C36.7287 14.8631 36.6744 14.7524 36.6485 14.6324C36.6225 14.5125 36.6257 14.3874 36.6578 14.2692L40.0738 1.56487C40.106 1.44625 40.109 1.32075 40.0828 1.20047C40.0566 1.0802 40.0019 0.969199 39.924 0.878182C39.8462 0.787164 39.7478 0.719196 39.6383 0.680828C39.5289 0.642461 39.412 0.634989 39.2991 0.659132Z" fill="url(#paint1_linear_4311_4)"/>
<defs>
<linearGradient id="paint0_linear_4311_4" x1="0.804902" y1="5.18072" x2="34.3765" y2="47.6826" gradientUnits="userSpaceOnUse">
<stop stop-color="#41D1FF"/>
<stop offset="1" stop-color="#BD34FE"/>
</linearGradient>
<linearGradient id="paint1_linear_4311_4" x1="26.112" y1="1.70084" x2="32.4868" y2="42.4665" gradientUnits="userSpaceOnUse">
<stop stop-color="#FFEA83"/>
<stop offset="0.083" stop-color="#FFDD35"/>
<stop offset="1" stop-color="#FFA800"/>
</linearGradient>
</defs>
</svg>
