<svg width="93" height="85" viewBox="0 0 93 85" fill="none" xmlns="http://www.w3.org/2000/svg">
<rect x="0.762695" y="0.552704" width="91.922" height="84.4529" rx="7" fill="#2965F1"/>
<path d="M22.1894 33.8019H26.6502C27.882 33.8019 28.8806 34.8439 28.8806 36.1293H33.3413C33.3413 32.2731 30.3456 29.147 26.6502 29.147H22.1894C18.494 29.147 15.4983 32.2731 15.4983 36.1293V50.094C15.4983 53.9502 18.494 57.0763 22.1894 57.0763H26.6502C30.3456 57.0763 33.3413 53.9502 33.3413 50.094H28.8806C28.8806 51.3794 27.882 52.4214 26.6502 52.4214H22.1894C20.9576 52.4214 19.959 51.3794 19.959 50.094V36.1293C19.959 34.8439 20.9576 33.8019 22.1894 33.8019Z" fill="white"/>
<path d="M44.4934 33.8019H48.9542C50.186 33.8019 51.1846 34.8439 51.1846 36.1293H55.6453C55.6453 32.2731 52.6496 29.147 48.9542 29.147H44.4934C40.798 29.147 37.8023 32.2731 37.8023 36.1293V38.4568C37.8023 42.313 40.798 45.4391 44.4934 45.4391H48.9542C50.186 45.4391 51.1846 46.4811 51.1846 47.7665V50.094C51.1846 51.3794 50.186 52.4214 48.9542 52.4214H44.4934C43.2616 52.4214 42.2631 51.3794 42.2631 50.094H37.8023C37.8023 53.9502 40.798 57.0763 44.4934 57.0763H48.9542C52.6496 57.0763 55.6453 53.9502 55.6453 50.094V47.7665C55.6453 43.9103 52.6496 40.7842 48.9542 40.7842H44.4934C43.2616 40.7842 42.2631 39.7422 42.2631 38.4568V36.1293C42.2631 34.8439 43.2616 33.8019 44.4934 33.8019Z" fill="white"/>
<path d="M71.258 40.7842H66.7973C65.5655 40.7842 64.5669 39.7422 64.5669 38.4568V36.1293C64.5669 34.8439 65.5655 33.8019 66.7973 33.8019H71.258C72.4898 33.8019 73.4884 34.8439 73.4884 36.1293H77.9492C77.9492 32.2731 74.9534 29.147 71.258 29.147H66.7973C63.1019 29.147 60.1061 32.2731 60.1061 36.1293V38.4568C60.1061 42.313 63.1019 45.4391 66.7973 45.4391H71.258C72.4898 45.4391 73.4884 46.4811 73.4884 47.7665V50.094C73.4884 51.3794 72.4898 52.4214 71.258 52.4214H66.7973C65.5655 52.4214 64.5669 51.3794 64.5669 50.094H60.1061C60.1061 53.9502 63.1019 57.0763 66.7973 57.0763H71.258C74.9534 57.0763 77.9492 53.9502 77.9492 50.094V47.7665C77.9492 43.9103 74.9534 40.7842 71.258 40.7842Z" fill="white"/>
</svg>
