<svg width="83" height="82" viewBox="0 0 83 82" fill="none" xmlns="http://www.w3.org/2000/svg">
<g clip-path="url(#clip0_2308_90)">
<path d="M28.4902 81.1395C36.1079 81.1395 42.2904 75.1412 42.2904 67.7505V54.3615H28.4902C20.8726 54.3615 14.69 60.3599 14.69 67.7505C14.69 75.1412 20.8726 81.1395 28.4902 81.1395Z" fill="#0ACE82"/>
<path d="M14.69 40.9728C14.69 33.5821 20.8726 27.5838 28.4902 27.5838H42.2904V54.3614H28.4902C20.8726 54.3618 14.69 48.3634 14.69 40.9728Z" fill="#A259FF"/>
<path d="M14.69 14.1952C14.69 6.80458 20.8726 0.806259 28.4902 0.806259H42.2904V27.5839H28.4902C20.8726 27.5839 14.69 21.5859 14.69 14.1952Z" fill="#F34E1E"/>
<path d="M42.2896 0.806259H56.0898C63.7074 0.806259 69.89 6.80458 69.89 14.1952C69.89 21.5859 63.7074 27.5839 56.0898 27.5839H42.2896V0.806259Z" fill="#FF7261"/>
<path d="M69.89 40.9728C69.89 48.3634 63.7074 54.3618 56.0898 54.3618C48.4721 54.3618 42.2896 48.3634 42.2896 40.9728C42.2896 33.5821 48.4721 27.5838 56.0898 27.5838C63.7074 27.5838 69.89 33.5821 69.89 40.9728Z" fill="#1ABCFD"/>
</g>
<defs>
<clipPath id="clip0_2308_90">
<rect width="82.8" height="80.3332" fill="white" transform="translate(0.200012 0.806259)"/>
</clipPath>
</defs>
</svg>
