<svg width="96" height="85" viewBox="0 0 96 85" fill="none" xmlns="http://www.w3.org/2000/svg">
<path d="M93.4082 38.5815L52.0472 2.01055C50.9005 1.00029 49.3478 0.433044 47.7291 0.433044C46.1104 0.433044 44.5577 1.00029 43.411 2.01055L34.842 9.60186L45.7359 19.235C47.0211 18.8499 48.4027 18.7914 49.7237 19.066C51.0447 19.3406 52.2522 19.9373 53.2088 20.7883C54.1655 21.6394 54.833 22.7106 55.1356 23.8804C55.4382 25.0501 55.3637 26.2715 54.9206 27.4057L65.4118 36.6898C66.9645 36.2124 68.6545 36.2154 70.2049 36.6984C71.7554 37.1814 73.0744 38.1157 73.9458 39.3482C74.8172 40.5808 75.1895 42.0385 75.0015 43.4825C74.8135 44.9266 74.0765 46.2714 72.9112 47.2967C72.2378 47.8931 71.438 48.3663 70.5575 48.6892C69.677 49.012 68.7332 49.1782 67.7801 49.1782C66.8269 49.1782 65.8831 49.012 65.0027 48.6892C64.1222 48.3663 63.3224 47.8931 62.6489 47.2967C61.6397 46.4017 60.9505 45.2641 60.667 44.0254C60.3834 42.7867 60.5181 41.5016 61.0543 40.3301L51.2301 31.6882V54.4622C51.9248 54.7623 52.58 55.1707 53.1563 55.6768C54.508 56.8844 55.2663 58.515 55.2663 60.2141C55.2663 61.9133 54.508 63.5438 53.1563 64.7515C52.4803 65.3497 51.6777 65.8243 50.7942 66.1481C49.9107 66.4719 48.9637 66.6386 48.0074 66.6386C47.051 66.6386 46.104 66.4719 45.2205 66.1481C44.3371 65.8243 43.5344 65.3497 42.8585 64.7515C42.1837 64.1568 41.6483 63.4502 41.283 62.6722C40.9177 61.8941 40.7297 61.06 40.7297 60.2176C40.7297 59.3752 40.9177 58.5411 41.283 57.7631C41.6483 56.985 42.1837 56.2784 42.8585 55.6838C43.5768 55.0555 44.386 54.5808 45.2464 54.2667V31.2694C44.3604 30.9491 43.555 30.4766 42.8768 29.8792C42.1986 29.2818 41.6612 28.5714 41.2956 27.7891C40.93 27.0068 40.7434 26.1682 40.7468 25.3218C40.7502 24.4753 40.9434 23.6379 41.3152 22.8579L30.6108 13.3469L2.24736 38.4105C-0.120865 40.5221 -0.120865 43.939 2.24736 46.0506L43.6123 82.6181C44.1787 83.1194 44.8512 83.517 45.5915 83.7883C46.3317 84.0597 47.1251 84.1993 47.9265 84.1993C48.7278 84.1993 49.5212 84.0597 50.2615 83.7883C51.0017 83.517 51.6742 83.1194 52.2406 82.6181L93.4082 46.2147C93.9762 45.714 94.4268 45.1192 94.7343 44.4643C95.0417 43.8094 95.2 43.1072 95.2 42.3981C95.2 41.689 95.0417 40.9868 94.7343 40.3319C94.4268 39.6769 93.9762 39.0821 93.4082 38.5815Z" fill="#F05033"/>
</svg>
