<svg width="49" height="48" viewBox="0 0 49 48" fill="none" xmlns="http://www.w3.org/2000/svg">
<rect x="5" y="5" width="40" height="40" rx="4" fill="black"/>
<ellipse cx="25.0246" cy="24.6068" rx="17.5509" ry="17.3932" fill="white"/>
<path fill-rule="evenodd" clip-rule="evenodd" d="M25.4166 5C20.8055 5.00232 16.3456 6.58778 12.8344 9.47287C9.32319 12.358 6.98961 16.3546 6.25093 20.748C5.51226 25.1415 6.41665 29.6453 8.80242 33.4542C11.1882 37.2631 14.8997 40.1286 19.2734 41.5384C20.2383 41.7123 20.6018 41.1317 20.6018 40.6381C20.6018 40.1445 20.5825 38.7132 20.576 37.1485C15.1726 38.2817 14.0308 34.9349 14.0308 34.9349C13.1495 32.7616 11.8758 32.1904 11.8758 32.1904C10.1133 31.0292 12.0077 31.051 12.0077 31.051C13.96 31.1845 14.986 32.9852 14.986 32.9852C16.7164 35.8507 19.5307 35.0218 20.6371 34.5375C20.8108 33.3236 21.3158 32.4977 21.8722 32.0289C17.5559 31.557 13.0208 29.9488 13.0208 22.7647C12.9941 20.9016 13.7103 19.0998 15.0214 17.7321C14.822 17.2602 14.1562 15.354 15.2112 12.7647C15.2112 12.7647 16.8419 12.2617 20.5535 14.6865C23.7372 13.8461 27.0961 13.8461 30.2798 14.6865C33.9882 12.2617 35.6157 12.7647 35.6157 12.7647C36.6738 15.3477 36.0081 17.254 35.8087 17.7321C37.1239 19.1 37.8416 20.9049 37.8124 22.7709C37.8124 29.9706 33.2677 31.557 28.945 32.0196C29.6397 32.6033 30.2605 33.7427 30.2605 35.4937C30.2605 38.0023 30.2379 40.0203 30.2379 40.6381C30.2379 41.1379 30.5885 41.7216 31.5727 41.5384C35.9469 40.1284 39.6588 37.2624 42.0445 33.4529C44.4303 29.6433 45.3342 25.1388 44.5947 20.745C43.8552 16.3511 41.5204 12.3545 38.008 9.46986C34.4957 6.58526 30.0347 5.00085 25.4231 5H25.4166Z" fill="black"/>
<path d="M13.3485 31.9202C13.3066 32.0133 13.1523 32.0413 13.0268 31.9761C12.9014 31.9109 12.8081 31.7898 12.8531 31.6936C12.8982 31.5973 13.0493 31.5725 13.1748 31.6377C13.3002 31.7029 13.3967 31.827 13.3485 31.9202Z" fill="black"/>
<path d="M14.1365 32.7679C14.0699 32.8003 13.9937 32.8093 13.921 32.7935C13.8482 32.7776 13.7834 32.7378 13.7377 32.681C13.6123 32.5506 13.5865 32.3705 13.683 32.2898C13.7795 32.2091 13.9532 32.2463 14.0786 32.3767C14.2041 32.5071 14.233 32.6872 14.1365 32.7679Z" fill="black"/>
<path d="M14.902 33.8452C14.783 33.9259 14.5804 33.8452 14.4678 33.6838C14.4367 33.6548 14.4119 33.6201 14.395 33.5817C14.3781 33.5433 14.3694 33.502 14.3694 33.4602C14.3694 33.4185 14.3781 33.3772 14.395 33.3388C14.4119 33.3004 14.4367 33.2656 14.4678 33.2367C14.5868 33.1591 14.7894 33.2367 14.902 33.395C15.0146 33.5534 15.0178 33.7645 14.902 33.8452V33.8452Z" fill="black"/>
<path d="M15.9411 34.8882C15.8349 35.0031 15.6194 34.972 15.4425 34.8168C15.2656 34.6616 15.2238 34.4505 15.33 34.3387C15.4361 34.2269 15.6516 34.258 15.8349 34.4101C16.0183 34.5622 16.0536 34.7764 15.9411 34.8882V34.8882Z" fill="black"/>
<path d="M17.3979 35.4967C17.3497 35.6427 17.1309 35.7079 16.9122 35.6458C16.6935 35.5837 16.5488 35.4098 16.5906 35.2608C16.6324 35.1118 16.8543 35.0435 17.0763 35.1118C17.2982 35.1801 17.4397 35.3446 17.3979 35.4967Z" fill="black"/>
<path d="M18.9869 35.6024C18.9869 35.7545 18.8068 35.8849 18.5752 35.888C18.3436 35.8911 18.1538 35.7669 18.1538 35.6148C18.1538 35.4627 18.3339 35.3323 18.5655 35.3292C18.7971 35.3261 18.9869 35.4471 18.9869 35.6024Z" fill="black"/>
<path d="M20.4661 35.3633C20.495 35.5154 20.3342 35.6737 20.1026 35.711C19.8711 35.7482 19.6684 35.6582 19.6395 35.5092C19.6105 35.3601 19.7778 35.1987 20.0029 35.1584C20.2281 35.118 20.4371 35.2111 20.4661 35.3633Z" fill="black"/>
</svg>
