<svg width="96" height="90" viewBox="0 0 96 90" fill="none" xmlns="http://www.w3.org/2000/svg">
<g clip-path="url(#clip0_2308_101)">
<path fill-rule="evenodd" clip-rule="evenodd" d="M47.8461 2.23148C36.6719 2.23694 25.8642 5.96609 17.3554 12.7521C8.84658 19.5381 3.19158 28.9385 1.40154 39.2724C-0.388495 49.6062 1.80313 60.1997 7.58459 69.1585C13.366 78.1174 22.3603 84.8574 32.9591 88.1735C35.2973 88.5824 36.1781 87.2169 36.1781 86.0558C36.1781 84.8947 36.1313 81.5283 36.1157 77.8479C23.0214 80.5132 20.2545 72.6413 20.2545 72.6413C18.1189 67.5296 15.0324 66.1859 15.0324 66.1859C10.7612 63.4548 15.352 63.5059 15.352 63.5059C20.0831 63.8199 22.5694 68.0554 22.5694 68.0554C26.7627 74.7955 33.5826 72.8457 36.2638 71.7066C36.6847 68.8513 37.9084 66.9089 39.2568 65.8062C28.797 64.6962 17.8071 60.9136 17.8071 44.0158C17.7423 39.6335 19.478 35.3955 22.6552 32.1786C22.1719 31.0687 20.5585 26.585 23.115 20.4948C23.115 20.4948 27.0667 19.3118 36.0612 25.015C43.7761 23.0383 51.916 23.0383 59.6309 25.015C68.6176 19.3118 72.5615 20.4948 72.5615 20.4948C75.1258 26.5704 73.5124 31.0541 73.0292 32.1786C76.2164 35.396 77.9557 39.6414 77.885 44.0304C77.885 60.9647 66.8717 64.6962 56.3963 65.7843C58.0798 67.1572 59.5842 69.8371 59.5842 73.9557C59.5842 79.856 59.5296 84.6026 59.5296 86.0558C59.5296 87.2315 60.3791 88.6043 62.7642 88.1735C73.3642 84.857 82.3593 78.1158 88.1407 69.1554C93.9221 60.195 96.1125 49.6 94.3205 39.2652C92.5284 28.9303 86.8706 19.5299 78.359 12.745C69.8474 5.96017 59.0371 2.23348 47.8616 2.23148H47.8461Z" fill="black"/>
<path d="M18.6011 65.5506C18.4998 65.7697 18.1256 65.8354 17.8217 65.682C17.5177 65.5287 17.2917 65.2439 17.4008 65.0175C17.5099 64.7911 17.8762 64.7327 18.1802 64.8861C18.4842 65.0394 18.718 65.3315 18.6011 65.5506Z" fill="black"/>
<path d="M20.5108 67.5441C20.3494 67.6203 20.1647 67.6416 19.9884 67.6043C19.8121 67.567 19.6551 67.4735 19.5443 67.3397C19.2403 67.033 19.1779 66.6094 19.4118 66.4196C19.6456 66.2297 20.0665 66.3173 20.3705 66.624C20.6745 66.9307 20.7446 67.3543 20.5108 67.5441Z" fill="black"/>
<path d="M22.3657 70.078C22.0773 70.2679 21.5862 70.078 21.3134 69.6983C21.238 69.6302 21.178 69.5485 21.137 69.4582C21.096 69.3678 21.0749 69.2707 21.0749 69.1725C21.0749 69.0744 21.096 68.9772 21.137 68.8869C21.178 68.7966 21.238 68.7149 21.3134 68.6468C21.6018 68.4642 22.0929 68.6468 22.3657 69.0192C22.6385 69.3916 22.6463 69.8882 22.3657 70.078V70.078Z" fill="black"/>
<path d="M24.8833 72.5317C24.6261 72.8019 24.1039 72.7289 23.6752 72.3637C23.2465 71.9986 23.1452 71.5021 23.4024 71.2392C23.6596 70.9763 24.1818 71.0493 24.6261 71.4071C25.0703 71.765 25.1561 72.2688 24.8833 72.5317V72.5317Z" fill="black"/>
<path d="M28.4139 73.9629C28.297 74.3061 27.767 74.4595 27.237 74.3134C26.707 74.1674 26.3562 73.7584 26.4576 73.4079C26.5589 73.0574 27.0967 72.8968 27.6345 73.0574C28.1723 73.2181 28.5152 73.6051 28.4139 73.9629Z" fill="black"/>
<path d="M32.2647 74.2112C32.2647 74.5691 31.8282 74.8758 31.267 74.8831C30.7058 74.8904 30.246 74.5983 30.246 74.2404C30.246 73.8826 30.6824 73.5759 31.2436 73.5686C31.8048 73.5613 32.2647 73.8461 32.2647 74.2112Z" fill="black"/>
<path d="M35.8496 73.649C35.9197 74.0068 35.53 74.3792 34.9688 74.4669C34.4076 74.5545 33.9166 74.3427 33.8465 73.9922C33.7763 73.6417 34.1816 73.262 34.7272 73.167C35.2728 73.0721 35.7794 73.2912 35.8496 73.649Z" fill="black"/>
</g>
<defs>
<clipPath id="clip0_2308_101">
<rect width="94.7288" height="89.2591" fill="white" transform="translate(0.498291)"/>
</clipPath>
</defs>
</svg>
