<svg width="92" height="85" viewBox="0 0 92 85" fill="none" xmlns="http://www.w3.org/2000/svg">
<g clip-path="url(#clip0_2310_81)">
<rect x="6.31525" y="19.1722" width="83.5017" height="43.8889" fill="white"/>
<path d="M86.3043 0.552704H5.62372C2.51209 0.552704 0 2.86618 0 5.71947V79.8333C0 82.6976 2.51808 85.0056 5.62372 85.0056H86.2983C89.4099 85.0056 91.922 82.6921 91.922 79.8333V5.71947C91.928 2.86618 89.4099 0.552704 86.3043 0.552704ZM26.7576 52.4792H21.9973V44.371H14.1312V52.4792H9.34089V33.0846H14.1312V40.5428H21.9973V33.0846H26.7576V52.4792ZM45.5653 36.7641H39.8037V52.4792H35.0074V36.7641H29.3357V33.0846H45.5653V36.7641ZM66.1536 52.4792L65.8419 45.0596C65.746 42.7241 65.656 39.9038 65.656 37.0891H65.5661C64.9066 39.5623 64.0253 42.3275 63.2099 44.5969L60.6378 52.1708H56.9147L54.6544 44.6575C53.9649 42.3825 53.2455 39.6174 52.7478 37.0891H52.6819C52.556 39.7055 52.4661 42.702 52.3042 45.1146L51.9265 52.4792H47.5078L48.8568 33.0846H55.224L57.2924 39.5623C57.9459 41.8042 58.6114 44.2223 59.079 46.4972H59.175C59.7745 44.2499 60.4939 41.6885 61.1774 39.5293L63.4377 33.0846H69.673L70.8301 52.4792H66.1536ZM87.6893 52.4792H74.4993V33.0846H79.2956V48.8052H87.6893V52.4792Z" fill="#F16529"/>
</g>
<defs>
<clipPath id="clip0_2310_81">
<rect width="91.922" height="84.4529" fill="white" transform="translate(0 0.552704)"/>
</clipPath>
</defs>
</svg>
