<svg width="90" height="84" viewBox="0 0 90 84" fill="none" xmlns="http://www.w3.org/2000/svg">
<rect x="8.24402" y="25.7953" width="78.523" height="55.2632" rx="8" fill="white"/>
<path d="M8.52539 0C4.10711 0 0.525391 3.58172 0.525391 8V76C0.525391 80.4183 4.10711 84 8.52539 84H81.6406C86.0589 84 89.6406 80.4183 89.6406 76V8C89.6406 3.58172 86.0589 0 81.6406 0H8.52539ZM48.2657 65.25C48.2657 73.4269 43.1416 77.4131 35.7239 77.4131C30.9419 77.4131 27.5918 75.7471 25.3483 73.358C23.867 71.7807 24.6333 69.3569 26.5128 68.2846V68.2846C28.4396 67.1852 30.6087 68.1226 32.3619 69.4819C33.0718 70.0323 33.9509 70.365 35.165 70.365C37.552 70.365 39.5133 69.3506 39.5133 65.4038V43.3762C39.5133 40.9593 41.4726 39 43.8895 39V39C46.3064 39 48.2657 40.9593 48.2657 43.3762V65.25ZM68.0282 77.2256C62.2396 77.2256 57.9756 75.3926 55.1624 72.5713C53.5905 70.9948 54.3526 68.49 56.307 67.4238V67.4238C58.1667 66.4091 60.4061 67.1263 62.0782 68.4272C63.5369 69.5622 65.3733 70.23 67.8591 70.23C71.3283 70.23 73.3433 68.7825 73.3433 66.5269C73.3433 63.8212 71.2686 62.8631 67.4394 61.2769L65.3468 60.4294C59.3037 58.0069 55.2975 54.9619 55.2975 48.5325C55.2975 42.6131 60.0814 38.2894 67.5588 38.2894C71.5086 38.2894 74.6332 39.1477 77.108 41.455C78.6424 42.8855 78.0115 45.297 76.2173 46.3841V46.3841C74.4079 47.4804 72.1899 46.617 70.3249 45.6183C69.5259 45.1905 68.6226 45 67.5488 45C65.0962 45 63.5406 46.4662 63.5406 48.375C63.5406 50.7431 65.0962 51.7012 68.6846 53.1675L70.7773 54.0131C77.8965 56.8894 81.9047 59.8256 81.9047 66.4181C81.9067 73.5244 75.9849 77.2256 68.0282 77.2256Z" fill="#EFBE24"/>
</svg>
